<?xml version="1.0" encoding="UTF-8"?>
<svg xmlns="http://www.w3.org/2000/svg" xmlns:xlink="http://www.w3.org/1999/xlink" width="363.194pt" height="129.167pt" viewBox="0 0 363.194 129.167" version="1.1">
<g id="surface1">
<path style=" stroke:none;fill-rule:nonzero;fill:rgb(63.768005%,24.139404%,6.039429%);fill-opacity:1;" d="M 146.402344 75.828125 C 146.402344 77.390625 145.949219 78.207031 145.046875 78.832031 C 144.144531 79.4375 142.964844 79.757813 141.511719 79.757813 L 136.996094 79.757813 L 136.996094 71.722656 L 141.511719 71.722656 C 142.757813 71.722656 143.738281 71.886719 144.453125 72.230469 C 145.753906 72.863281 146.402344 74.066406 146.402344 75.828125 M 165.921875 75.828125 C 165.921875 77.390625 165.464844 78.207031 164.566406 78.832031 C 163.664063 79.4375 162.484375 79.757813 161.03125 79.757813 L 156.515625 79.757813 L 156.515625 71.722656 L 161.03125 71.722656 C 162.277344 71.722656 163.257813 71.886719 163.96875 72.230469 C 165.269531 72.863281 165.921875 74.066406 165.921875 75.828125 M 167.457031 80.417969 C 166.289063 81.808594 164.507813 82.507813 162.097656 82.507813 L 156.515625 82.507813 L 156.515625 92.949219 L 153.265625 92.949219 L 153.265625 68.921875 L 162.09375 68.921875 C 164.222656 68.921875 165.9375 69.527344 167.246094 70.730469 C 168.546875 71.941406 169.203125 73.628906 169.203125 75.804688 C 169.203125 77.691406 168.621094 79.027344 167.457031 80.417969 M 147.941406 80.417969 C 146.773438 81.808594 144.992188 82.507813 142.585938 82.507813 L 136.996094 82.507813 L 136.996094 92.949219 L 133.746094 92.949219 L 133.746094 68.921875 L 142.585938 68.921875 C 144.707031 68.921875 146.425781 69.527344 147.730469 70.730469 C 149.035156 71.941406 149.683594 73.628906 149.683594 75.804688 C 149.683594 77.691406 149.101563 79.027344 147.941406 80.417969 M 105.898438 81.105469 C 106.203125 81.113281 106.433594 81.117188 106.578125 81.117188 L 107.632813 81.117188 C 109.910156 81.117188 111.773438 81.492188 113.238281 82.238281 C 114.699219 82.984375 115.4375 84.375 115.4375 86.40625 C 115.4375 88.449219 114.808594 89.832031 113.554688 90.550781 C 112.300781 91.273438 110.75 91.632813 108.898438 91.632813 C 107.605469 91.632813 106.78125 91.542969 106.433594 91.359375 C 106.078125 91.175781 105.898438 90.769531 105.898438 90.144531 Z M 105.898438 71.53125 C 105.898438 70.949219 105.988281 70.597656 106.164063 70.464844 C 106.339844 70.332031 106.808594 70.273438 107.570313 70.273438 C 109.566406 70.273438 111.050781 70.480469 112.035156 70.890625 C 113.808594 71.648438 114.695313 73.109375 114.695313 75.277344 C 114.695313 77.117188 113.921875 78.382813 112.386719 79.09375 C 111.582031 79.46875 110.574219 79.664063 109.355469 79.683594 L 105.898438 79.738281 Z M 176.347656 19.378906 L 70.117188 19.378906 C 69.605469 19.378906 69.480469 19.675781 69.84375 20.039063 L 130.082031 80.273438 C 130.445313 80.636719 130.445313 81.234375 130.082031 81.597656 L 110.382813 101.292969 C 110.019531 101.660156 109.425781 101.660156 109.058594 101.292969 L 100.714844 92.949219 L 110.570313 92.949219 C 112.585938 92.949219 114.285156 92.667969 115.671875 92.113281 C 118.292969 91.050781 119.597656 89.101563 119.597656 86.265625 C 119.597656 84.578125 119.011719 83.265625 117.832031 82.328125 C 116.648438 81.382813 115.222656 80.71875 113.554688 80.316406 C 114.902344 79.988281 115.914063 79.5625 116.585938 79.054688 C 117.78125 78.171875 118.382813 76.867188 118.382813 75.152344 C 118.382813 72.867188 117.527344 71.257813 115.820313 70.328125 C 114.113281 69.390625 111.808594 68.921875 108.90625 68.921875 L 98.734375 68.921875 L 98.734375 69.597656 C 100.191406 69.667969 101.136719 69.894531 101.570313 70.28125 C 101.992188 70.664063 102.210938 71.523438 102.210938 72.855469 L 102.210938 89.011719 C 102.210938 90.363281 101.992188 91.226563 101.570313 91.589844 C 101.296875 91.828125 100.664063 92.054688 99.949219 92.183594 L 27.816406 20.050781 C 27.453125 19.683594 27.15625 19.808594 27.15625 20.324219 L 27.148438 108.527344 C 27.148438 109.039063 27.570313 109.460938 28.085938 109.460938 L 176.347656 109.460938 C 176.867188 109.460938 177.285156 109.039063 177.285156 108.527344 L 177.285156 20.316406 C 177.285156 19.796875 176.867188 19.378906 176.347656 19.378906 "/>
<path style=" stroke:none;fill-rule:nonzero;fill:rgb(13.729858%,12.159729%,12.548828%);fill-opacity:1;" d="M 235.199219 59.566406 C 234.40625 60.09375 233.375 60.378906 232.101563 60.378906 L 228.148438 60.378906 L 228.148438 53.34375 L 232.101563 53.34375 C 233.1875 53.34375 234.050781 53.484375 234.675781 53.785156 C 235.8125 54.339844 236.382813 55.394531 236.382813 56.933594 C 236.382813 58.304688 235.980469 59.019531 235.199219 59.566406 M 237.542969 52.46875 C 236.398438 51.417969 234.894531 50.882813 233.035156 50.882813 L 225.296875 50.882813 L 225.296875 71.929688 L 228.148438 71.929688 L 228.148438 62.785156 L 233.035156 62.785156 C 235.140625 62.785156 236.707031 62.175781 237.730469 60.957031 C 238.746094 59.734375 239.261719 58.566406 239.261719 56.917969 C 239.261719 55.011719 238.679688 53.53125 237.542969 52.46875 "/>
<path style=" stroke:none;fill-rule:nonzero;fill:rgb(13.729858%,12.159729%,12.548828%);fill-opacity:1;" d="M 235.199219 91.105469 C 234.40625 91.632813 233.375 91.917969 232.101563 91.917969 L 228.148438 91.917969 L 228.148438 84.878906 L 232.101563 84.878906 C 233.1875 84.878906 234.050781 85.023438 234.675781 85.324219 C 235.8125 85.878906 236.382813 86.929688 236.382813 88.46875 C 236.382813 89.84375 235.980469 90.558594 235.199219 91.105469 M 237.542969 84.007813 C 236.398438 82.953125 234.894531 82.421875 233.035156 82.421875 L 225.296875 82.421875 L 225.296875 103.46875 L 228.148438 103.46875 L 228.148438 94.324219 L 233.035156 94.324219 C 235.140625 94.324219 236.707031 93.710938 237.730469 92.496094 C 238.746094 91.269531 239.261719 90.101563 239.261719 88.457031 C 239.261719 86.550781 238.679688 85.070313 237.542969 84.007813 "/>
<path style=" stroke:none;fill-rule:nonzero;fill:rgb(13.729858%,12.159729%,12.548828%);fill-opacity:1;" d="M 249.996094 68.398438 C 250.609375 67.132813 250.917969 65.730469 250.917969 64.179688 C 250.917969 62.78125 250.695313 61.648438 250.25 60.773438 C 249.550781 59.394531 248.34375 58.703125 246.628906 58.703125 C 245.105469 58.703125 244 59.289063 243.308594 60.460938 C 242.617188 61.640625 242.269531 63.054688 242.269531 64.710938 C 242.269531 66.304688 242.617188 67.628906 243.308594 68.695313 C 244 69.757813 245.097656 70.289063 246.601563 70.289063 C 248.253906 70.289063 249.382813 69.65625 249.996094 68.398438 M 251.558594 58.4375 C 252.886719 59.722656 253.546875 61.617188 253.546875 64.109375 C 253.546875 66.523438 252.964844 68.519531 251.796875 70.09375 C 250.628906 71.667969 248.816406 72.457031 246.363281 72.457031 C 244.316406 72.457031 242.691406 71.757813 241.488281 70.363281 C 240.285156 68.972656 239.683594 67.105469 239.683594 64.753906 C 239.683594 62.238281 240.3125 60.234375 241.585938 58.742188 C 242.855469 57.25 244.558594 56.503906 246.699219 56.503906 C 248.617188 56.503906 250.234375 57.152344 251.558594 58.4375 "/>
<path style=" stroke:none;fill-rule:nonzero;fill:rgb(13.729858%,12.159729%,12.548828%);fill-opacity:1;" d="M 265.796875 68.757813 C 266.578125 67.773438 266.96875 66.296875 266.96875 64.34375 C 266.96875 63.148438 266.796875 62.121094 266.449219 61.265625 C 265.792969 59.609375 264.597656 58.785156 262.855469 58.785156 C 261.105469 58.785156 259.90625 59.660156 259.261719 61.402344 C 258.914063 62.335938 258.742188 63.523438 258.742188 64.957031 C 258.742188 66.113281 258.914063 67.101563 259.261719 67.910156 C 259.917969 69.457031 261.113281 70.234375 262.855469 70.234375 C 264.035156 70.234375 265.015625 69.742188 265.796875 68.757813 M 256.320313 57.011719 L 258.78125 57.011719 L 258.78125 59 C 259.289063 58.320313 259.839844 57.789063 260.4375 57.414063 C 261.289063 56.855469 262.289063 56.578125 263.441406 56.578125 C 265.144531 56.578125 266.585938 57.226563 267.773438 58.53125 C 268.960938 59.832031 269.558594 61.691406 269.558594 64.101563 C 269.558594 67.371094 268.699219 69.699219 266.984375 71.101563 C 265.898438 71.984375 264.636719 72.429688 263.191406 72.429688 C 262.0625 72.429688 261.109375 72.179688 260.34375 71.683594 C 259.894531 71.40625 259.390625 70.925781 258.839844 70.25 L 258.839844 77.902344 L 256.320313 77.902344 Z M 256.320313 57.011719 "/>
<path style=" stroke:none;fill-rule:nonzero;fill:rgb(13.729858%,12.159729%,12.548828%);fill-opacity:1;" d="M 282.785156 68.398438 C 283.398438 67.132813 283.703125 65.730469 283.703125 64.179688 C 283.703125 62.78125 283.484375 61.648438 283.039063 60.773438 C 282.339844 59.394531 281.132813 58.703125 279.414063 58.703125 C 277.894531 58.703125 276.789063 59.289063 276.097656 60.460938 C 275.40625 61.640625 275.058594 63.054688 275.058594 64.710938 C 275.058594 66.304688 275.40625 67.628906 276.097656 68.695313 C 276.789063 69.757813 277.886719 70.289063 279.390625 70.289063 C 281.039063 70.289063 282.171875 69.65625 282.785156 68.398438 M 284.347656 58.4375 C 285.671875 59.722656 286.335938 61.617188 286.335938 64.109375 C 286.335938 66.523438 285.75 68.519531 284.582031 70.09375 C 283.417969 71.667969 281.605469 72.457031 279.152344 72.457031 C 277.105469 72.457031 275.480469 71.757813 274.277344 70.363281 C 273.074219 68.972656 272.472656 67.105469 272.472656 64.753906 C 272.472656 62.238281 273.101563 60.234375 274.375 58.742188 C 275.640625 57.25 277.347656 56.503906 279.484375 56.503906 C 281.402344 56.503906 283.023438 57.152344 284.347656 58.4375 "/>
<path style=" stroke:none;fill-rule:nonzero;fill:rgb(13.729858%,12.159729%,12.548828%);fill-opacity:1;" d="M 289.789063 51.371094 L 292.308594 51.371094 L 292.308594 71.925781 L 289.789063 71.925781 Z M 289.789063 51.371094 "/>
<path style=" stroke:none;fill-rule:nonzero;fill:rgb(13.729858%,12.159729%,12.548828%);fill-opacity:1;" d="M 299.394531 69.660156 C 299.921875 70.078125 300.554688 70.289063 301.28125 70.289063 C 302.167969 70.289063 303.027344 70.082031 303.859375 69.671875 C 305.253906 68.992188 305.957031 67.878906 305.957031 66.332031 L 305.957031 64.308594 C 305.648438 64.503906 305.25 64.667969 304.769531 64.800781 C 304.285156 64.929688 303.808594 65.023438 303.34375 65.078125 L 301.824219 65.277344 C 300.910156 65.394531 300.222656 65.589844 299.765625 65.847656 C 298.984375 66.28125 298.59375 66.984375 298.59375 67.945313 C 298.59375 68.667969 298.863281 69.242188 299.394531 69.660156 M 304.699219 62.855469 C 305.277344 62.78125 305.660156 62.539063 305.859375 62.132813 C 305.96875 61.90625 306.027344 61.582031 306.027344 61.164063 C 306.027344 60.300781 305.71875 59.675781 305.113281 59.285156 C 304.5 58.898438 303.628906 58.703125 302.492188 58.703125 C 301.183594 58.703125 300.25 59.058594 299.699219 59.773438 C 299.394531 60.164063 299.195313 60.753906 299.101563 61.527344 L 296.75 61.527344 C 296.796875 59.679688 297.394531 58.390625 298.542969 57.664063 C 299.695313 56.9375 301.03125 56.574219 302.546875 56.574219 C 304.308594 56.574219 305.738281 56.910156 306.839844 57.585938 C 307.929688 58.253906 308.472656 59.300781 308.472656 60.71875 L 308.472656 69.351563 C 308.472656 69.613281 308.527344 69.824219 308.632813 69.980469 C 308.742188 70.140625 308.96875 70.222656 309.3125 70.222656 C 309.425781 70.222656 309.550781 70.210938 309.691406 70.199219 C 309.832031 70.183594 309.980469 70.164063 310.140625 70.136719 L 310.140625 71.996094 C 309.746094 72.105469 309.449219 72.175781 309.242188 72.203125 C 309.039063 72.230469 308.757813 72.246094 308.40625 72.246094 C 307.535156 72.246094 306.90625 71.9375 306.515625 71.324219 C 306.308594 70.996094 306.164063 70.535156 306.082031 69.9375 C 305.570313 70.613281 304.832031 71.191406 303.871094 71.6875 C 302.910156 72.179688 301.851563 72.429688 300.695313 72.429688 C 299.304688 72.429688 298.167969 72.007813 297.289063 71.167969 C 296.40625 70.320313 295.964844 69.265625 295.964844 68.003906 C 295.964844 66.613281 296.398438 65.535156 297.265625 64.773438 C 298.132813 64.007813 299.273438 63.535156 300.683594 63.359375 Z M 304.699219 62.855469 "/>
<path style=" stroke:none;fill-rule:nonzero;fill:rgb(13.729858%,12.159729%,12.548828%);fill-opacity:1;" d="M 313.84375 56.9375 L 316.238281 56.9375 L 316.238281 59.527344 C 316.433594 59.023438 316.914063 58.414063 317.679688 57.691406 C 318.445313 56.964844 319.324219 56.605469 320.324219 56.605469 C 320.367188 56.605469 320.449219 56.609375 320.5625 56.621094 C 320.671875 56.628906 320.863281 56.648438 321.136719 56.675781 L 321.136719 59.335938 C 320.984375 59.304688 320.847656 59.285156 320.722656 59.277344 C 320.59375 59.265625 320.457031 59.261719 320.3125 59.261719 C 319.039063 59.261719 318.066406 59.671875 317.386719 60.484375 C 316.703125 61.304688 316.363281 62.238281 316.363281 63.304688 L 316.363281 71.925781 L 313.84375 71.925781 Z M 313.84375 56.9375 "/>
<path style=" stroke:none;fill-rule:nonzero;fill:rgb(13.729858%,12.159729%,12.548828%);fill-opacity:1;" d="M 333.460938 63.234375 C 333.359375 62.148438 333.125 61.273438 332.753906 60.621094 C 332.066406 59.410156 330.925781 58.800781 329.328125 58.800781 C 328.179688 58.800781 327.21875 59.21875 326.441406 60.050781 C 325.664063 60.886719 325.253906 61.949219 325.207031 63.234375 Z M 332.558594 57.351563 C 333.550781 57.851563 334.308594 58.5 334.824219 59.292969 C 335.328125 60.042969 335.660156 60.925781 335.828125 61.933594 C 335.972656 62.625 336.046875 63.722656 336.046875 65.238281 L 325.148438 65.238281 C 325.195313 66.757813 325.554688 67.988281 326.21875 68.910156 C 326.886719 69.828125 327.917969 70.289063 329.3125 70.289063 C 330.621094 70.289063 331.660156 69.851563 332.4375 68.976563 C 332.871094 68.476563 333.179688 67.890625 333.363281 67.222656 L 335.839844 67.222656 C 335.773438 67.773438 335.558594 68.386719 335.191406 69.0625 C 334.820313 69.742188 334.40625 70.289063 333.957031 70.722656 C 333.195313 71.46875 332.257813 71.972656 331.136719 72.230469 C 330.535156 72.382813 329.855469 72.457031 329.097656 72.457031 C 327.242188 72.457031 325.671875 71.777344 324.382813 70.421875 C 323.09375 69.0625 322.449219 67.164063 322.449219 64.71875 C 322.449219 62.3125 323.101563 60.359375 324.394531 58.859375 C 325.691406 57.355469 327.390625 56.605469 329.484375 56.605469 C 330.542969 56.605469 331.566406 56.855469 332.558594 57.351563 "/>
<path style=" stroke:none;fill-rule:nonzero;fill:rgb(13.729858%,12.159729%,12.548828%);fill-opacity:1;" d="M 244.238281 88.464844 L 244.238281 98.414063 C 244.238281 99.175781 244.355469 99.800781 244.59375 100.289063 C 245.027344 101.183594 245.84375 101.632813 247.03125 101.632813 C 248.738281 101.632813 249.902344 100.847656 250.519531 99.277344 C 250.855469 98.441406 251.023438 97.292969 251.023438 95.824219 L 251.023438 88.464844 L 253.542969 88.464844 L 253.542969 103.453125 L 251.164063 103.453125 L 251.191406 101.242188 C 250.871094 101.808594 250.472656 102.285156 249.996094 102.683594 C 249.054688 103.464844 247.910156 103.855469 246.566406 103.855469 C 244.46875 103.855469 243.039063 103.144531 242.28125 101.71875 C 241.871094 100.949219 241.664063 99.929688 241.664063 98.652344 L 241.664063 88.464844 Z M 244.238281 88.464844 "/>
<path style=" stroke:none;fill-rule:nonzero;fill:rgb(13.729858%,12.159729%,12.548828%);fill-opacity:1;" d="M 266.117188 91.769531 C 265.355469 90.871094 264.382813 90.425781 263.207031 90.425781 C 261.445313 90.425781 260.238281 91.253906 259.585938 92.914063 C 259.246094 93.796875 259.074219 94.964844 259.074219 96.398438 C 259.074219 98.089844 259.414063 99.371094 260.09375 100.25 C 260.777344 101.132813 261.695313 101.574219 262.84375 101.574219 C 264.644531 101.574219 265.914063 100.761719 266.644531 99.125 C 267.054688 98.203125 267.257813 97.125 267.257813 95.898438 C 267.257813 94.039063 266.878906 92.664063 266.117188 91.769531 M 265.808594 89.066406 C 266.28125 89.394531 266.761719 89.871094 267.257813 90.496094 L 267.257813 88.605469 L 269.582031 88.605469 L 269.582031 102.234375 C 269.582031 104.132813 269.300781 105.636719 268.742188 106.742188 C 267.699219 108.769531 265.738281 109.789063 262.84375 109.789063 C 261.238281 109.789063 259.882813 109.429688 258.785156 108.703125 C 257.691406 107.984375 257.078125 106.847656 256.945313 105.3125 L 259.507813 105.3125 C 259.625 105.980469 259.871094 106.5 260.230469 106.863281 C 260.796875 107.421875 261.683594 107.699219 262.902344 107.699219 C 264.820313 107.699219 266.078125 107.023438 266.671875 105.660156 C 267.023438 104.859375 267.1875 103.429688 267.160156 101.363281 C 266.660156 102.128906 266.054688 102.703125 265.347656 103.074219 C 264.640625 103.445313 263.710938 103.628906 262.546875 103.628906 C 260.929688 103.628906 259.515625 103.058594 258.300781 101.902344 C 257.089844 100.75 256.480469 98.847656 256.480469 96.1875 C 256.480469 93.683594 257.09375 91.722656 258.316406 90.3125 C 259.539063 88.90625 261.011719 88.199219 262.742188 88.199219 C 263.914063 88.199219 264.933594 88.488281 265.808594 89.066406 "/>
<path style=" stroke:none;fill-rule:nonzero;fill:rgb(13.729858%,12.159729%,12.548828%);fill-opacity:1;" d="M 273.460938 82.898438 L 275.976563 82.898438 L 275.976563 103.449219 L 273.460938 103.449219 Z M 273.460938 82.898438 "/>
<path style=" stroke:none;fill-rule:nonzero;fill:rgb(13.729858%,12.159729%,12.548828%);fill-opacity:1;" d="M 280.03125 88.535156 L 282.59375 88.535156 L 282.59375 103.449219 L 280.03125 103.449219 Z M 280.03125 82.898438 L 282.59375 82.898438 L 282.59375 85.75 L 280.03125 85.75 Z M 280.03125 82.898438 "/>
<path style=" stroke:none;fill-rule:nonzero;fill:rgb(13.729858%,12.159729%,12.548828%);fill-opacity:1;" d="M 297.140625 94.761719 C 297.039063 93.671875 296.804688 92.800781 296.433594 92.144531 C 295.75 90.933594 294.609375 90.324219 293.007813 90.324219 C 291.863281 90.324219 290.898438 90.742188 290.121094 91.578125 C 289.347656 92.414063 288.933594 93.472656 288.886719 94.761719 Z M 296.242188 88.875 C 297.234375 89.378906 297.988281 90.023438 298.507813 90.816406 C 299.007813 91.570313 299.339844 92.453125 299.507813 93.460938 C 299.65625 94.152344 299.730469 95.25 299.730469 96.765625 L 288.832031 96.765625 C 288.878906 98.285156 289.234375 99.511719 289.902344 100.433594 C 290.566406 101.355469 291.597656 101.8125 292.996094 101.8125 C 294.300781 101.8125 295.34375 101.375 296.121094 100.503906 C 296.554688 100.003906 296.863281 99.414063 297.042969 98.746094 L 299.519531 98.746094 C 299.457031 99.300781 299.238281 99.914063 298.871094 100.589844 C 298.5 101.269531 298.089844 101.816406 297.636719 102.246094 C 296.878906 102.992188 295.9375 103.496094 294.820313 103.757813 C 294.214844 103.90625 293.539063 103.984375 292.777344 103.984375 C 290.921875 103.984375 289.351563 103.300781 288.066406 101.945313 C 286.777344 100.589844 286.128906 98.6875 286.128906 96.246094 C 286.128906 93.835938 286.78125 91.886719 288.078125 90.382813 C 289.375 88.878906 291.074219 88.132813 293.167969 88.132813 C 294.226563 88.132813 295.246094 88.378906 296.242188 88.875 "/>
<path style=" stroke:none;fill-rule:nonzero;fill:rgb(13.729858%,12.159729%,12.548828%);fill-opacity:1;" d="M 304.699219 98.746094 C 304.773438 99.585938 304.988281 100.230469 305.339844 100.679688 C 305.988281 101.488281 307.109375 101.894531 308.710938 101.894531 C 309.664063 101.894531 310.5 101.695313 311.222656 101.289063 C 311.949219 100.882813 312.308594 100.257813 312.308594 99.40625 C 312.308594 98.761719 312.019531 98.273438 311.441406 97.933594 C 311.074219 97.734375 310.339844 97.496094 309.253906 97.226563 L 307.21875 96.71875 C 305.921875 96.40625 304.964844 96.046875 304.347656 95.65625 C 303.246094 94.976563 302.695313 94.035156 302.695313 92.832031 C 302.695313 91.414063 303.214844 90.265625 304.25 89.386719 C 305.285156 88.511719 306.675781 88.074219 308.425781 88.074219 C 310.714844 88.074219 312.363281 88.738281 313.375 90.0625 C 314.007813 90.902344 314.3125 91.804688 314.296875 92.777344 L 311.917969 92.777344 C 311.871094 92.210938 311.664063 91.695313 311.300781 91.230469 C 310.710938 90.574219 309.683594 90.242188 308.222656 90.242188 C 307.25 90.242188 306.511719 90.425781 306.007813 90.785156 C 305.507813 91.144531 305.257813 91.625 305.257813 92.222656 C 305.257813 92.871094 305.585938 93.390625 306.246094 93.78125 C 306.625 94.015625 307.1875 94.21875 307.925781 94.398438 L 309.625 94.800781 C 311.46875 95.242188 312.703125 95.664063 313.328125 96.078125 C 314.308594 96.71875 314.800781 97.734375 314.800781 99.113281 C 314.800781 100.449219 314.289063 101.597656 313.261719 102.570313 C 312.238281 103.539063 310.675781 104.027344 308.582031 104.027344 C 306.324219 104.027344 304.722656 103.519531 303.789063 102.503906 C 302.847656 101.492188 302.34375 100.242188 302.277344 98.746094 Z M 304.699219 98.746094 "/>
<path style=" stroke:none;fill-rule:nonzero;fill:rgb(13.729858%,12.159729%,12.548828%);fill-opacity:1;" d="M 328.261719 94.761719 C 328.160156 93.671875 327.925781 92.800781 327.558594 92.144531 C 326.871094 90.933594 325.730469 90.324219 324.132813 90.324219 C 322.984375 90.324219 322.023438 90.742188 321.242188 91.578125 C 320.46875 92.414063 320.054688 93.472656 320.007813 94.761719 Z M 327.359375 88.875 C 328.355469 89.378906 329.109375 90.023438 329.628906 90.816406 C 330.128906 91.570313 330.460938 92.453125 330.628906 93.460938 C 330.777344 94.152344 330.851563 95.25 330.851563 96.765625 L 319.953125 96.765625 C 320 98.285156 320.355469 99.511719 321.023438 100.433594 C 321.6875 101.355469 322.722656 101.8125 324.121094 101.8125 C 325.421875 101.8125 326.464844 101.375 327.242188 100.503906 C 327.675781 100.003906 327.984375 99.414063 328.164063 98.746094 L 330.640625 98.746094 C 330.574219 99.300781 330.359375 99.914063 329.992188 100.589844 C 329.625 101.269531 329.210938 101.816406 328.761719 102.246094 C 328 102.992188 327.058594 103.496094 325.941406 103.757813 C 325.339844 103.90625 324.660156 103.984375 323.902344 103.984375 C 322.042969 103.984375 320.472656 103.300781 319.1875 101.945313 C 317.898438 100.589844 317.253906 98.6875 317.253906 96.246094 C 317.253906 93.835938 317.90625 91.886719 319.199219 90.382813 C 320.5 88.878906 322.195313 88.132813 324.289063 88.132813 C 325.347656 88.132813 326.371094 88.378906 327.359375 88.875 "/>
<path style=" stroke:none;fill-rule:nonzero;fill:rgb(13.729858%,12.159729%,12.548828%);fill-opacity:1;" d="M 235.289063 38.292969 C 236.382813 37.664063 236.929688 36.453125 236.929688 34.664063 C 236.929688 32.886719 236.289063 31.671875 235.007813 31.023438 C 233.726563 30.371094 232.09375 30.042969 230.109375 30.042969 L 229.1875 30.042969 C 229.054688 30.042969 228.855469 30.042969 228.589844 30.03125 L 228.589844 37.933594 C 228.589844 38.480469 228.746094 38.835938 229.054688 39 C 229.363281 39.160156 230.085938 39.234375 231.210938 39.234375 C 232.832031 39.234375 234.191406 38.921875 235.289063 38.292969 M 234.265625 28.273438 C 235.609375 27.652344 236.28125 26.542969 236.28125 24.933594 C 236.28125 23.042969 235.503906 21.761719 233.953125 21.101563 C 233.097656 20.734375 231.792969 20.554688 230.046875 20.554688 C 229.386719 20.554688 228.976563 20.613281 228.820313 20.726563 C 228.667969 20.839844 228.589844 21.152344 228.589844 21.65625 L 228.589844 28.835938 L 231.613281 28.789063 C 232.675781 28.769531 233.558594 28.597656 234.265625 28.273438 M 222.328125 39.796875 C 223.601563 39.722656 224.429688 39.527344 224.804688 39.199219 C 225.175781 38.875 225.367188 38.125 225.367188 36.945313 L 225.367188 22.820313 C 225.367188 21.652344 225.175781 20.898438 224.804688 20.5625 C 224.429688 20.230469 223.601563 20.027344 222.328125 19.964844 L 222.328125 19.378906 L 231.21875 19.378906 C 233.757813 19.378906 235.773438 19.789063 237.265625 20.605469 C 238.757813 21.421875 239.503906 22.828125 239.503906 24.824219 C 239.503906 26.324219 238.980469 27.464844 237.9375 28.238281 C 237.347656 28.683594 236.464844 29.050781 235.289063 29.339844 C 236.746094 29.691406 237.992188 30.273438 239.023438 31.097656 C 240.058594 31.921875 240.574219 33.066406 240.574219 34.546875 C 240.574219 37.019531 239.425781 38.730469 237.136719 39.652344 C 235.929688 40.140625 234.4375 40.386719 232.675781 40.386719 L 222.328125 40.386719 Z M 222.328125 39.796875 "/>
<path style=" stroke:none;fill-rule:nonzero;fill:rgb(13.729858%,12.159729%,12.548828%);fill-opacity:1;" d="M 251.234375 31.214844 C 249.964844 31.632813 248.917969 32.097656 248.089844 32.605469 C 246.5 33.589844 245.707031 34.703125 245.707031 35.949219 C 245.707031 36.953125 246.039063 37.695313 246.699219 38.167969 C 247.128906 38.476563 247.609375 38.632813 248.136719 38.632813 C 248.867188 38.632813 249.566406 38.425781 250.234375 38.019531 C 250.902344 37.609375 251.234375 37.089844 251.234375 36.464844 Z M 245.160156 33.085938 C 246.175781 32.425781 248.203125 31.527344 251.234375 30.386719 L 251.234375 28.980469 C 251.234375 27.855469 251.125 27.074219 250.90625 26.632813 C 250.527344 25.894531 249.75 25.523438 248.570313 25.523438 C 248.007813 25.523438 247.472656 25.664063 246.964844 25.953125 C 246.457031 26.25 246.203125 26.65625 246.203125 27.175781 C 246.203125 27.308594 246.230469 27.53125 246.285156 27.847656 C 246.34375 28.160156 246.367188 28.363281 246.367188 28.453125 C 246.367188 29.070313 246.164063 29.5 245.757813 29.742188 C 245.527344 29.882813 245.25 29.957031 244.929688 29.957031 C 244.433594 29.957031 244.050781 29.792969 243.789063 29.46875 C 243.523438 29.144531 243.390625 28.785156 243.390625 28.382813 C 243.390625 27.613281 243.867188 26.804688 244.820313 25.960938 C 245.777344 25.117188 247.171875 24.695313 249.015625 24.695313 C 251.160156 24.695313 252.609375 25.386719 253.371094 26.78125 C 253.777344 27.542969 253.984375 28.652344 253.984375 30.109375 L 253.984375 36.742188 C 253.984375 37.382813 254.027344 37.828125 254.117188 38.066406 C 254.257813 38.496094 254.554688 38.714844 255.007813 38.714844 C 255.261719 38.714844 255.472656 38.675781 255.636719 38.597656 C 255.800781 38.519531 256.089844 38.332031 256.5 38.035156 L 256.5 38.894531 C 256.144531 39.324219 255.761719 39.675781 255.359375 39.953125 C 254.738281 40.375 254.109375 40.582031 253.46875 40.582031 C 252.71875 40.582031 252.175781 40.339844 251.839844 39.855469 C 251.503906 39.371094 251.316406 38.789063 251.285156 38.117188 C 250.445313 38.84375 249.726563 39.386719 249.132813 39.738281 C 248.128906 40.335938 247.171875 40.632813 246.269531 40.632813 C 245.320313 40.632813 244.5 40.296875 243.800781 39.632813 C 243.109375 38.964844 242.757813 38.117188 242.757813 37.089844 C 242.757813 35.492188 243.558594 34.15625 245.160156 33.085938 "/>
<path style=" stroke:none;fill-rule:nonzero;fill:rgb(13.729858%,12.159729%,12.548828%);fill-opacity:1;" d="M 257.949219 39.921875 C 258.734375 39.820313 259.285156 39.628906 259.597656 39.332031 C 259.914063 39.042969 260.070313 38.382813 260.070313 37.375 L 260.070313 28.960938 C 260.070313 28.265625 260.003906 27.773438 259.871094 27.488281 C 259.660156 27.070313 259.230469 26.863281 258.582031 26.863281 C 258.480469 26.863281 258.378906 26.867188 258.273438 26.878906 C 258.167969 26.890625 258.039063 26.90625 257.886719 26.929688 L 257.886719 26.347656 C 258.335938 26.214844 259.40625 25.875 261.097656 25.324219 L 262.652344 24.8125 C 262.730469 24.8125 262.777344 24.839844 262.792969 24.894531 C 262.808594 24.945313 262.820313 25.027344 262.820313 25.125 L 262.820313 27.554688 C 263.832031 26.609375 264.625 25.957031 265.195313 25.609375 C 266.054688 25.066406 266.949219 24.792969 267.871094 24.792969 C 268.621094 24.792969 269.304688 25.007813 269.921875 25.441406 C 271.109375 26.277344 271.707031 27.773438 271.707031 29.925781 L 271.707031 37.652344 C 271.707031 38.449219 271.863281 39.023438 272.183594 39.375 C 272.5 39.726563 273.03125 39.910156 273.773438 39.921875 L 273.773438 40.382813 L 266.707031 40.382813 L 266.707031 39.921875 C 267.511719 39.8125 268.078125 39.589844 268.394531 39.25 C 268.714844 38.914063 268.875 38.183594 268.875 37.054688 L 268.875 29.992188 C 268.875 29.042969 268.699219 28.257813 268.347656 27.628906 C 267.996094 27.007813 267.347656 26.695313 266.40625 26.695313 C 265.757813 26.695313 265.101563 26.921875 264.429688 27.359375 C 264.058594 27.613281 263.578125 28.03125 262.980469 28.617188 L 262.980469 37.882813 C 262.980469 38.683594 263.160156 39.210938 263.511719 39.484375 C 263.867188 39.75 264.421875 39.902344 265.183594 39.921875 L 265.183594 40.382813 L 257.949219 40.382813 Z M 257.949219 39.921875 "/>
<path style=" stroke:none;fill-rule:nonzero;fill:rgb(13.729858%,12.159729%,12.548828%);fill-opacity:1;" d="M 286.730469 25.839844 C 287.726563 26.550781 288.226563 27.328125 288.226563 28.175781 C 288.226563 28.539063 288.101563 28.875 287.847656 29.191406 C 287.59375 29.503906 287.199219 29.660156 286.671875 29.660156 C 286.285156 29.660156 285.945313 29.527344 285.652344 29.265625 C 285.363281 28.996094 285.152344 28.613281 285.015625 28.101563 L 284.816406 27.308594 C 284.675781 26.722656 284.425781 26.3125 284.074219 26.070313 C 283.707031 25.835938 283.230469 25.71875 282.632813 25.71875 C 281.375 25.71875 280.3125 26.269531 279.445313 27.371094 C 278.582031 28.46875 278.148438 29.929688 278.148438 31.753906 C 278.148438 33.417969 278.625 34.917969 279.582031 36.246094 C 280.535156 37.570313 281.820313 38.234375 283.445313 38.234375 C 284.589844 38.234375 285.613281 37.859375 286.507813 37.105469 C 287.015625 36.671875 287.589844 35.992188 288.226563 35.050781 L 288.691406 35.332031 C 288.0625 36.65625 287.402344 37.707031 286.707031 38.480469 C 285.371094 39.960938 283.828125 40.699219 282.070313 40.699219 C 280.351563 40.699219 278.828125 40.023438 277.503906 38.664063 C 276.175781 37.308594 275.515625 35.464844 275.515625 33.136719 C 275.515625 30.851563 276.238281 28.886719 277.683594 27.242188 C 279.128906 25.601563 280.957031 24.777344 283.164063 24.777344 C 284.542969 24.777344 285.730469 25.132813 286.730469 25.839844 "/>
<path style=" stroke:none;fill-rule:nonzero;fill:rgb(13.729858%,12.159729%,12.548828%);fill-opacity:1;" d="M 299.5 31.214844 C 298.230469 31.632813 297.183594 32.097656 296.355469 32.605469 C 294.765625 33.589844 293.96875 34.703125 293.96875 35.949219 C 293.96875 36.953125 294.304688 37.695313 294.964844 38.167969 C 295.394531 38.476563 295.875 38.632813 296.402344 38.632813 C 297.132813 38.632813 297.832031 38.425781 298.5 38.019531 C 299.167969 37.609375 299.5 37.089844 299.5 36.464844 Z M 293.425781 33.085938 C 294.441406 32.425781 296.464844 31.527344 299.5 30.386719 L 299.5 28.980469 C 299.5 27.855469 299.390625 27.074219 299.167969 26.632813 C 298.792969 25.894531 298.015625 25.523438 296.835938 25.523438 C 296.269531 25.523438 295.734375 25.664063 295.226563 25.953125 C 294.722656 26.25 294.46875 26.65625 294.46875 27.175781 C 294.46875 27.308594 294.496094 27.53125 294.550781 27.847656 C 294.605469 28.160156 294.632813 28.363281 294.632813 28.453125 C 294.632813 29.070313 294.429688 29.5 294.019531 29.742188 C 293.789063 29.882813 293.515625 29.957031 293.195313 29.957031 C 292.695313 29.957031 292.316406 29.792969 292.050781 29.46875 C 291.789063 29.144531 291.652344 28.785156 291.652344 28.382813 C 291.652344 27.613281 292.132813 26.804688 293.085938 25.960938 C 294.039063 25.117188 295.4375 24.695313 297.28125 24.695313 C 299.421875 24.695313 300.875 25.386719 301.636719 26.78125 C 302.042969 27.542969 302.246094 28.652344 302.246094 30.109375 L 302.246094 36.742188 C 302.246094 37.382813 302.292969 37.828125 302.378906 38.066406 C 302.519531 38.496094 302.820313 38.714844 303.273438 38.714844 C 303.527344 38.714844 303.738281 38.675781 303.902344 38.597656 C 304.066406 38.519531 304.355469 38.332031 304.765625 38.035156 L 304.765625 38.894531 C 304.410156 39.324219 304.027344 39.675781 303.621094 39.953125 C 303.003906 40.375 302.375 40.582031 301.730469 40.582031 C 300.980469 40.582031 300.441406 40.339844 300.101563 39.855469 C 299.765625 39.371094 299.582031 38.789063 299.550781 38.117188 C 298.710938 38.84375 297.992188 39.386719 297.394531 39.738281 C 296.394531 40.335938 295.4375 40.632813 294.535156 40.632813 C 293.585938 40.632813 292.765625 40.296875 292.066406 39.632813 C 291.371094 38.964844 291.023438 38.117188 291.023438 37.089844 C 291.023438 35.492188 291.828125 34.15625 293.425781 33.085938 "/>
</g>
</svg>
